<svg width="42" height="32" viewBox="0 0 42 32" fill="none" xmlns="http://www.w3.org/2000/svg">
<path d="M11.1133 17.5927C11.0448 18.8675 11.4825 20.1178 12.331 21.0717C13.1796 22.0256 14.3704 22.6059 15.6445 22.6864C16.9159 22.6019 18.1028 22.0199 18.948 21.0665C19.7932 20.1131 20.2287 18.865 20.1602 17.5927C20.2289 16.3187 19.7938 15.0689 18.949 14.113C18.1041 13.157 16.9172 12.5717 15.6445 12.4833C14.369 12.5678 13.1782 13.1514 12.33 14.1078C11.4819 15.0642 11.0447 16.3162 11.1133 17.5927V17.5927ZM17.0352 17.5927C17.0352 18.6552 16.3945 19.5614 15.6445 19.5614C14.8945 19.5614 14.2383 18.6552 14.2383 17.5927C14.2383 16.5302 14.8789 15.6083 15.6445 15.6083C16.4102 15.6083 17.0352 16.5145 17.0352 17.5927ZM25.8945 12.4833C24.6218 12.5717 23.4349 13.157 22.5901 14.113C21.7452 15.0689 21.3102 16.3187 21.3789 17.5927C21.3103 18.865 21.7459 20.1131 22.5911 21.0665C23.4363 22.0199 24.6232 22.6019 25.8945 22.6864C27.1687 22.6059 28.3595 22.0256 29.208 21.0717C30.0566 20.1178 30.4942 18.8675 30.4258 17.5927C30.4943 16.3162 30.0572 15.0642 29.209 14.1078C28.3609 13.1514 27.17 12.5678 25.8945 12.4833V12.4833ZM25.8945 19.5614C25.1445 19.5614 24.5039 18.6552 24.5039 17.5927C24.5039 16.5302 25.1445 15.6083 25.8945 15.6083C26.6445 15.6083 27.3008 16.5145 27.3008 17.5927C27.3008 18.6708 26.6602 19.5614 25.8945 19.5614Z" fill="white"/>
<path d="M37.3789 6.84266L37.2695 6.70203C37.2695 6.70203 37.2695 6.59266 37.2695 6.54579C34.5572 3.25168 30.8143 0.967377 26.6445 0.0614099C26.4425 0.0030357 26.2308 -0.0139599 26.022 0.0114419C25.8133 0.0368437 25.6118 0.10412 25.4297 0.209241C25.2476 0.314361 25.0886 0.455162 24.9621 0.623208C24.8357 0.791255 24.7445 0.983089 24.694 1.18722C24.6435 1.39135 24.6347 1.60357 24.6682 1.81118C24.7017 2.01878 24.7767 2.21749 24.8888 2.39541C25.0009 2.57333 25.1477 2.72679 25.3206 2.8466C25.4934 2.96641 25.6886 3.0501 25.8945 3.09266C29.3426 3.83192 32.4477 5.69498 34.7227 8.38954C36.8302 13.2264 37.9307 18.4417 37.957 23.7177C35.7809 25.7473 33.0705 27.1134 30.1445 27.6552V26.9833C30.1445 26.9833 30.1445 26.9052 30.1445 26.8583C32.0708 26.111 33.8766 25.0844 35.5039 23.8114C35.8292 23.5524 36.0383 23.1748 36.0852 22.7616C36.1321 22.3485 36.0129 21.9336 35.7539 21.6083C35.4949 21.283 35.1173 21.0739 34.7041 21.027C34.291 20.9801 33.8761 21.0993 33.5508 21.3583C29.8831 24.1397 25.37 25.5741 20.7695 25.4208C16.2062 25.5489 11.7358 24.1158 8.09766 21.3583C7.93659 21.23 7.75183 21.1348 7.55394 21.0779C7.35605 21.0211 7.1489 21.0038 6.94432 21.027C6.53116 21.0739 6.15354 21.283 5.89454 21.6083C5.63554 21.9336 5.51637 22.3485 5.56325 22.7616C5.61014 23.1748 5.81923 23.5524 6.14454 23.8114C7.76075 25.084 9.5562 26.1107 11.4727 26.8583V27.6552C8.54668 27.1134 5.83626 25.7473 3.66016 23.7177C3.6964 18.4395 4.80753 13.2241 6.92579 8.38954C9.20071 5.69498 12.3058 3.83192 15.7539 3.09266C16.142 2.98053 16.4715 2.72249 16.6734 2.37265C16.8753 2.02282 16.9339 1.60839 16.8369 1.21629C16.7399 0.824188 16.4948 0.484893 16.1531 0.269576C15.8113 0.0542598 15.3995 -0.0203457 15.0039 0.0614099C10.8342 0.967377 7.0912 3.25168 4.37891 6.54579C4.37891 6.54579 4.37891 6.65516 4.37891 6.70203L4.26954 6.84266C1.23829 13.0927 0.894536 18.7958 0.566411 24.2489C0.55228 24.4701 0.585375 24.6918 0.6635 24.8992C0.741625 25.1067 0.86299 25.2951 1.01954 25.452C4.1952 28.6886 8.43617 30.6648 12.957 31.0145V31.0145C13.3669 31.0128 13.7598 30.8501 14.0508 30.5614C14.1984 30.4167 14.3159 30.2441 14.3963 30.0537C14.4768 29.8633 14.5187 29.6588 14.5195 29.452V27.8895C18.6307 28.8513 22.9084 28.8513 27.0195 27.8895V29.452C27.0204 29.6588 27.0623 29.8633 27.1427 30.0537C27.2232 30.2441 27.3406 30.4167 27.4883 30.5614C27.7793 30.8501 28.1721 31.0128 28.582 31.0145C33.1473 30.7229 37.4486 28.7724 40.6758 25.5302C40.8323 25.3732 40.9537 25.1848 41.0318 24.9774C41.1099 24.7699 41.143 24.5482 41.1289 24.327C40.7539 18.7958 40.4102 13.1552 37.3789 6.84266Z" fill="white"/>
<path d="M32.4727 8.70203C32.5674 8.51949 32.6252 8.32004 32.6428 8.11511C32.6603 7.91018 32.6372 7.70381 32.5747 7.50783C32.5123 7.31186 32.4118 7.13013 32.279 6.97308C32.1462 6.81604 31.9837 6.68676 31.8008 6.59266C28.3599 4.95256 24.58 4.14945 20.7695 4.24891C16.9591 4.14945 13.1791 4.95256 9.73828 6.59266C9.5554 6.68676 9.39288 6.81604 9.26007 6.97308C9.12726 7.13013 9.02676 7.31186 8.96434 7.50783C8.90192 7.70381 8.8788 7.91018 8.89632 8.11511C8.91383 8.32004 8.97164 8.51949 9.06641 8.70203C9.25919 9.06869 9.58969 9.34379 9.98524 9.46685C10.3808 9.58991 10.809 9.55086 11.1758 9.35828C14.1746 7.95586 17.4605 7.27621 20.7695 7.37391C24.0786 7.27621 27.3645 7.95586 30.3633 9.35828C30.5843 9.47765 30.8309 9.54197 31.082 9.54578C31.369 9.54638 31.6505 9.46796 31.8958 9.31913C32.1411 9.1703 32.3407 8.95679 32.4727 8.70203Z" fill="white"/>
</svg>
