<svg width="41" height="41" viewBox="0 0 41 41" fill="none" xmlns="http://www.w3.org/2000/svg">
<path d="M20.4384 0.00105878C15.5248 0.00255914 10.7783 1.7851 7.07842 5.01839C3.37852 8.25168 0.976035 12.7165 0.316143 17.5856C-0.343749 22.4547 0.783685 27.3979 3.48954 31.4994C6.19539 35.6008 10.2962 38.5824 15.0322 39.8917C15.2354 39.9681 15.4523 40.0014 15.669 39.9894C15.8858 39.9773 16.0977 39.9203 16.2912 39.8218C16.4846 39.7233 16.6555 39.5856 16.7928 39.4174C16.9301 39.2493 17.0308 39.0543 17.0886 38.845C17.1464 38.6358 17.1599 38.4168 17.1283 38.202C17.0967 37.9872 17.0207 37.7813 16.9051 37.5975C16.7896 37.4137 16.637 37.2561 16.4571 37.1345C16.2772 37.013 16.0739 36.9303 15.8603 36.8917C11.9277 35.8148 8.50609 33.375 6.20652 30.008C3.90695 26.6411 2.87924 22.5662 3.30698 18.5114C3.73471 14.4566 5.59002 10.6859 8.5415 7.8728C11.493 5.05974 15.3484 3.38756 19.4191 3.15495C23.4898 2.92233 27.5106 4.14445 30.7633 6.60298C34.016 9.06151 36.2888 12.5963 37.1756 16.576C38.0625 20.5558 37.5057 24.7211 35.6046 28.3281C33.7035 31.9352 30.5821 34.7489 26.7978 36.2667C26.8963 34.2135 26.7389 32.156 26.3291 30.1417C28.55 29.6491 30.5303 28.3988 31.9302 26.6055C33.33 24.8123 34.0622 22.5877 34.0009 20.3136C34.1137 18.1745 33.5388 16.0554 32.3603 14.2667C32.5787 12.4919 32.3643 10.6906 31.7353 9.01668C31.6181 8.66765 31.3814 8.37122 31.0669 8.17969C30.7525 7.98816 30.3805 7.91383 30.0166 7.96981C28.132 8.22718 26.3311 8.91121 24.7509 9.96981C23.3433 9.59554 21.8949 9.39613 20.4384 9.37606C18.8552 9.41777 17.2821 9.64324 15.7509 10.0479C14.2321 8.88604 12.3816 8.24002 10.4697 8.20418C10.1328 8.18429 9.79853 8.274 9.51688 8.45989C9.23523 8.64578 9.02133 8.91786 8.90718 9.23543C8.33413 10.8304 8.13631 12.536 8.32905 14.2198C7.20792 16.0512 6.63831 18.1669 6.68843 20.3136C6.74633 22.5762 7.54038 24.7584 8.9502 26.5291C10.36 28.2998 12.3087 29.5626 14.5009 30.1261C14.4006 30.533 14.3223 30.945 14.2666 31.3604C12.7041 31.4542 11.7978 30.5011 10.6416 29.0479C9.96091 27.9042 8.8812 27.0526 7.6103 26.6573C7.21564 26.5869 6.80902 26.671 6.47457 26.892C6.14012 27.113 5.90342 27.4541 5.81343 27.8448C5.72689 28.2357 5.79373 28.645 6.00017 28.9881C6.2066 29.3312 6.53686 29.5819 6.9228 29.6886C7.1728 29.6886 7.78218 30.5011 8.12593 30.9542C8.74853 31.9676 9.60604 32.8162 10.6259 33.4281C11.6458 34.0401 12.7981 34.3974 13.9853 34.4698C14.672 34.4689 15.3554 34.3743 16.0166 34.1886C16.1784 34.1406 16.3314 34.0667 16.4697 33.9698C16.5838 33.8796 16.6793 33.7682 16.7509 33.6417C16.8006 33.6026 16.843 33.555 16.8759 33.5011C16.9165 33.4161 16.9479 33.3271 16.9697 33.2354C17.0081 33.1335 17.0394 33.0291 17.0634 32.9229C17.0582 31.8847 17.3049 30.8606 17.7822 29.9386C17.9763 29.7116 18.1014 29.4337 18.1424 29.1378C18.1835 28.842 18.1389 28.5405 18.014 28.2692C17.889 27.9979 17.6889 27.7682 17.4374 27.6071C17.1858 27.446 16.8934 27.3604 16.5947 27.3604C14.7838 27.2582 13.0784 26.4751 11.8208 25.1681C10.5631 23.8612 9.84603 22.1271 9.81343 20.3136C9.73604 18.6438 10.2141 16.9954 11.1728 15.6261C11.3283 15.4517 11.4427 15.2447 11.5076 15.0202C11.5725 14.7958 11.5862 14.5596 11.5478 14.3292C11.368 13.374 11.368 12.3937 11.5478 11.4386C12.5703 11.6551 13.5119 12.153 14.2666 12.8761C14.4702 13.0715 14.7231 13.2082 14.9982 13.2714C15.2733 13.3347 15.5604 13.3223 15.8291 13.2354C17.3306 12.8071 18.8781 12.5606 20.4384 12.5011C21.8427 12.5362 23.2357 12.7622 24.5791 13.1729C24.8409 13.2699 25.1239 13.295 25.3987 13.2455C25.6735 13.1961 25.93 13.0739 26.1416 12.8917C27.0519 12.1416 28.1203 11.6074 29.2666 11.3292C29.5009 12.3102 29.5009 13.3326 29.2666 14.3136C29.2054 14.595 29.2195 14.8875 29.3072 15.1618C29.395 15.4361 29.5534 15.6824 29.7666 15.8761C30.6838 17.1619 31.0801 18.7474 30.8759 20.3136C30.9127 21.2319 30.7603 22.1481 30.428 23.005C30.0958 23.862 29.5909 24.6414 28.9446 25.295C28.2984 25.9485 27.5247 26.4622 26.6715 26.8041C25.8184 27.146 24.904 27.3088 23.9853 27.2823C23.666 27.2813 23.3541 27.3781 23.0915 27.5596C22.829 27.7412 22.6283 27.9989 22.5166 28.2979C22.4032 28.597 22.3843 28.9238 22.4626 29.2339C22.5408 29.5441 22.7124 29.8228 22.9541 30.0323C23.8759 30.8292 23.7353 36.2823 23.6884 38.4073C23.6823 38.6499 23.7328 38.8905 23.8359 39.1102C23.9389 39.3299 24.0917 39.5226 24.2822 39.6729C24.5591 39.8879 24.9003 40.0035 25.2509 40.0011C25.3807 40.0163 25.5118 40.0163 25.6416 40.0011C30.458 38.7789 34.6594 35.8336 37.4507 31.7226C40.242 27.6116 41.4295 22.6199 40.7885 17.6924C40.1475 12.7648 37.7226 8.24307 33.9724 4.98292C30.2223 1.72277 25.4073 -0.0496515 20.4384 0.00105878Z" fill="white"/>
</svg>
