<svg width="41" height="27" viewBox="0 0 41 27" fill="none" xmlns="http://www.w3.org/2000/svg">
<path d="M40.4521 21.875C38.6029 18.964 36.4388 16.2655 33.9989 13.8282C33.9546 13.7727 33.9304 13.7039 33.9304 13.6329C33.9304 13.5619 33.9546 13.493 33.9989 13.4375C36.0984 10.5719 37.9539 7.53522 39.5458 4.35942C39.7761 3.90498 39.8855 3.39892 39.8637 2.88993C39.8418 2.38095 39.6893 1.88616 39.4208 1.45317C39.176 1.01309 38.818 0.646368 38.384 0.390907C37.95 0.135447 37.4557 0.000510433 36.9521 4.38947e-05H32.2646C31.6697 0.0115858 31.0905 0.192688 30.5951 0.522064C30.0997 0.851441 29.7085 1.3154 29.4677 1.85942C28.1061 4.87061 26.4745 7.75219 24.5927 10.4688V2.81254C24.5948 2.44262 24.5234 2.07596 24.3828 1.7338C24.2422 1.39164 24.0351 1.08076 23.7735 0.819186C23.512 0.557608 23.2011 0.350519 22.8589 0.209912C22.5168 0.0693045 22.1501 -0.00202855 21.7802 4.38947e-05H14.9364C14.538 0.0062383 14.1489 0.121135 13.811 0.332331C13.4731 0.543526 13.1993 0.842998 13.0192 1.19842C12.8391 1.55384 12.7595 1.95171 12.7889 2.34907C12.8184 2.74644 12.9558 3.12821 13.1864 3.45317L13.8114 4.32817C14.1467 4.80963 14.3266 5.38212 14.3271 5.96879V11.9688C12.2645 8.91745 10.6246 5.60086 9.45206 2.10942C9.24063 1.49418 8.84245 0.960257 8.31307 0.582126C7.78369 0.203996 7.14949 0.000508462 6.49893 4.38947e-05H2.67081C2.26406 0.0049073 1.86366 0.101506 1.49944 0.28264C1.13522 0.463774 0.816578 0.724772 0.567259 1.04618C0.317941 1.36759 0.144375 1.74113 0.059499 2.13895C-0.0253773 2.53677 -0.0193758 2.94862 0.0770563 3.34379C2.18643 12.2969 6.60831 19.7188 12.2177 23.6563C12.5539 23.8951 12.9708 23.9914 13.3777 23.924C13.7845 23.8567 14.1482 23.6313 14.3896 23.2969C14.5102 23.1299 14.5967 22.9407 14.644 22.7402C14.6912 22.5396 14.6984 22.3317 14.665 22.1284C14.6316 21.9251 14.5583 21.7304 14.4494 21.5555C14.3404 21.3806 14.1979 21.229 14.0302 21.1094C9.12393 17.6719 5.21768 11.125 3.23331 3.12504H6.51456C7.95242 7.49363 10.1183 11.5878 12.9208 15.2344C13.2447 15.6483 13.6908 15.9495 14.1957 16.0954C14.7006 16.2413 15.2386 16.2243 15.7333 16.0469C16.2409 15.87 16.68 15.5379 16.9884 15.0976C17.2969 14.6574 17.4591 14.1313 17.4521 13.5938V5.96879C17.4554 4.97552 17.2082 3.99744 16.7333 3.12504H21.4208V11.6094C21.4152 12.2165 21.6095 12.8086 21.9738 13.2943C22.3381 13.78 22.8521 14.1323 23.4364 14.2969C24.0034 14.4856 24.6167 14.4822 25.1816 14.2874C25.7465 14.0925 26.2314 13.7169 26.5614 13.2188C28.7808 10.0526 30.6758 6.67092 32.2177 3.12504H36.5927C35.1034 6.05328 33.3845 8.85893 31.4521 11.5157C30.9648 12.1675 30.7282 12.9729 30.7856 13.7847C30.843 14.5966 31.1904 15.3607 31.7646 15.9375C34.0435 18.234 36.0947 20.7457 37.8896 23.4375H32.6552C31.0404 20.7646 28.872 18.4683 26.2958 16.7032C25.9093 16.42 25.4511 16.2508 24.9733 16.2149C24.4955 16.179 24.0172 16.2778 23.5927 16.5C23.1562 16.7234 22.7905 17.0639 22.5366 17.4834C22.2827 17.9029 22.1507 18.3847 22.1552 18.875V22.5938C22.1637 22.8109 22.0866 23.0226 21.9405 23.1834C21.7943 23.3441 21.5909 23.441 21.3739 23.4532H20.0302C19.6158 23.4532 19.2184 23.6178 18.9253 23.9108C18.6323 24.2038 18.4677 24.6013 18.4677 25.0157C18.4677 25.4301 18.6323 25.8275 18.9253 26.1205C19.2184 26.4135 19.6158 26.5782 20.0302 26.5782H21.3739C21.8923 26.5741 22.4048 26.4677 22.882 26.265C23.3592 26.0624 23.7917 25.7675 24.1546 25.3973C24.5176 25.0271 24.8038 24.5889 24.997 24.1078C25.1901 23.6267 25.2864 23.1122 25.2802 22.5938V19.8282C27.1598 21.242 28.751 23.0029 29.9677 25.0157C30.2363 25.4812 30.6205 25.8696 31.083 26.1433C31.5456 26.417 32.0709 26.5668 32.6083 26.5782H37.8896C38.4296 26.5795 38.96 26.4351 39.4247 26.16C39.8895 25.885 40.2714 25.4897 40.5302 25.0157C40.7956 24.5319 40.9282 23.9865 40.9145 23.4348C40.9007 22.8832 40.7412 22.345 40.4521 21.875Z" fill="white"/>
</svg>
